<svg xmlns="http://www.w3.org/2000/svg" xmlns:xlink="http://www.w3.org/1999/xlink" version="1.1" id="Your_Icon" x="0px" y="0px" width="100px" height="100px" viewBox="0 0 100 100" enable-background="new 0 0 100 100" xml:space="preserve">
<g>
	<path d="M50,100C22.43,100,0,77.57,0,50C0,22.43,22.43,0,50,0c27.57,0,50,22.43,50,50C100,77.57,77.57,100,50,100z M50,9.235   C27.522,9.235,9.235,27.522,9.235,50S27.522,90.765,50,90.765c22.478,0,40.765-18.287,40.765-40.765S72.478,9.235,50,9.235z"/>
	<path d="M74.632,44.869H55.13v-19.5c0-2.834-2.297-5.13-5.13-5.13c-2.834,0-5.13,2.297-5.13,5.13v19.5H25.368   c-2.834,0-5.13,2.297-5.13,5.13c0,2.834,2.297,5.13,5.13,5.13H44.87v19.501c0,2.834,2.297,5.13,5.13,5.13   c2.834,0,5.13-2.297,5.13-5.13V55.13h19.501c2.834,0,5.13-2.297,5.13-5.13C79.762,47.166,77.465,44.869,74.632,44.869z"/>
</g>
</svg>