<?xml version="1.0" encoding="utf-8"?>
<!-- Generator: Adobe Illustrator 15.1.0, SVG Export Plug-In . SVG Version: 6.00 Build 0)  -->
<!DOCTYPE svg PUBLIC "-//W3C//DTD SVG 1.1//EN" "http://www.w3.org/Graphics/SVG/1.1/DTD/svg11.dtd">
<svg version="1.1" id="Layer_1" xmlns="http://www.w3.org/2000/svg" xmlns:xlink="http://www.w3.org/1999/xlink" x="0px" y="0px"
	 width="100px" height="75.784px" viewBox="0 0 100 75.784" enable-background="new 0 0 100 75.784" xml:space="preserve">
<path fill="#010101" d="M72.732,72.73c-1.892,0-5.283,0-9.278,0c0.058-0.498,0.148-0.981,0.148-1.492v-7.601c3.82,0,7.11,0,9.13,0
	c10.042,0,18.18-8.142,18.18-18.18c0-10.042-8.138-18.184-18.18-18.184c-2.797,0-5.43,0.657-7.791,1.792l-3.681-3.678
	C57.042,15.803,47.514,9.092,36.366,9.092c-15.063,0-27.272,12.209-27.272,27.272c0,15.051,12.191,27.25,27.237,27.273v7.601
	c0,0.513,0.095,0.997,0.15,1.492c-0.037,0-0.08,0-0.117,0C16.28,72.73,0,56.45,0,36.365C0,16.282,16.28,0,36.364,0
	c13.648,0,25.524,7.528,31.744,18.648c1.51-0.26,3.039-0.466,4.619-0.466C87.791,18.182,100,30.394,100,45.458
	C100.004,60.517,87.795,72.73,72.732,72.73z"/>
<path fill="#010101" d="M33.898,49.449c-1.774-1.771-1.774-4.652,0-6.424l12.857-12.859c1.772-1.776,4.654-1.776,6.427,0
	l12.855,12.859c1.775,1.771,1.775,4.652,0,6.424c-1.774,1.775-4.653,1.775-6.427,0l-5.099-5.097v26.886
	c0,2.509-2.036,4.546-4.543,4.546c-2.512,0-4.546-2.037-4.546-4.546V44.353l-5.097,5.097C38.552,51.225,35.674,51.225,33.898,49.449
	z"/>
</svg>
