<svg xmlns="http://www.w3.org/2000/svg" xmlns:xlink="http://www.w3.org/1999/xlink" version="1.1" id="Your_Icon" x="0px" y="0px" width="100px" height="100px" viewBox="0 0 100 100" enable-background="new 0 0 100 100" xml:space="preserve">
<g>
	<path d="M71.299,50.023L71.299,50.023c-0.874,0-1.688-0.444-2.16-1.18l-9.191-14.3c-0.005-0.007-0.009-0.013-0.013-0.02   c-1.402-2.178-2.143-4.704-2.143-7.304c0-7.448,6.06-13.508,13.508-13.508s13.508,6.06,13.508,13.508   c0,2.601-0.741,5.128-2.145,7.307l-9.203,14.318C72.987,49.579,72.173,50.023,71.299,50.023z M64.241,31.724   c0.005,0.008,0.01,0.015,0.014,0.022l7.044,10.959l7.044-10.959c0.869-1.35,1.328-2.915,1.328-4.527   c0-4.616-3.755-8.372-8.372-8.372s-8.372,3.755-8.372,8.372C62.927,28.824,63.381,30.382,64.241,31.724z"/>
</g>
<g>
	<path d="M71.299,32.776c-3.055,0-5.54-2.485-5.54-5.54s2.485-5.539,5.54-5.539s5.54,2.485,5.54,5.539S74.354,32.776,71.299,32.776z    M71.299,25.12c-1.167,0-2.116,0.949-2.116,2.115s0.949,2.116,2.116,2.116c1.167,0,2.116-0.949,2.116-2.116   S72.466,25.12,71.299,25.12z"/>
</g>
<g>
	<path d="M29.191,30.024c-0.188-0.034-0.394-0.043-0.599-0.026C28.788,29.973,28.985,29.981,29.191,30.024z"/>
</g>
<g>
	<path d="M93.134,36.136l-4.289-1.224c-1.37-0.394-2.791,0.402-3.176,1.763c-0.394,1.361,0.402,2.782,1.763,3.176l2.431,0.693   v39.778l-16.94-4.836V57.125c0-0.942-0.762-1.712-1.712-1.712c-0.942,0-1.712,0.77-1.712,1.712v18.37l-17.788,5.068V40.784   l3.595-1.027c1.361-0.385,2.157-1.806,1.763-3.167c-0.385-1.37-1.806-2.157-3.176-1.772l-3.903,1.113l-20.398-5.812   c-0.043-0.017-0.077-0.026-0.12-0.034c-0.051-0.017-0.094-0.026-0.137-0.034c-0.051-0.009-0.103-0.026-0.146-0.026   c-0.188-0.034-0.394-0.043-0.599-0.026c-0.051-0.009-0.111,0-0.163,0.009c-0.12,0.017-0.24,0.043-0.351,0.077   c-0.034,0.009-0.077,0.017-0.111,0.034L6.858,36.136C5.753,36.453,5,37.454,5,38.601v45.12c0,0.805,0.377,1.566,1.019,2.054   c0.454,0.334,0.993,0.514,1.549,0.514c0.231,0,0.471-0.034,0.702-0.094l20.51-5.855l20.407,5.821   c0.094,0.026,0.188,0.051,0.283,0.068c0.009,0.009,0.009,0.009,0.017,0c0.068,0.017,0.145,0.034,0.214,0.034   c0.103,0.017,0.197,0.026,0.299,0.026c0.231,0,0.471-0.026,0.702-0.094l0.111-0.034l20.407-5.812h0.009l20.501,5.847   c0.231,0.06,0.462,0.094,0.702,0.094c0.548,0,1.096-0.18,1.549-0.514C94.623,85.287,95,84.526,95,83.721v-45.12   C95,37.454,94.238,36.453,93.134,36.136z M27.068,75.495l-16.932,4.828V40.544l16.932-4.836V75.495z M48.288,80.571l-17.796-5.076   V35.708l17.796,5.085V80.571z"/>
</g>
</svg>