<svg xmlns="http://www.w3.org/2000/svg" xmlns:xlink="http://www.w3.org/1999/xlink" version="1.1" id="Layer_1" x="0px" y="0px" width="100px" height="100px" viewBox="0 0 100 100" enable-background="new 0 0 100 100" xml:space="preserve">
<g>
	<g>
		<g>
			<g>
			</g>
		</g>
		<g>
		</g>
	</g>
</g>
<g>
	<path d="M56.114,23.336v-9.35c0-0.89-0.722-1.61-1.611-1.61h-8.988c-0.887,0-1.609,0.721-1.609,1.61v9.202   c-6.613,1.466-11.242,5.387-11.242,10.126v54.43c0,0.891,0.722,1.611,1.61,1.611h30.818c0.889,0,1.61-0.721,1.61-1.611v-54.43   C66.702,28.732,62.378,24.909,56.114,23.336z M47.126,22.562v-6.968h5.769v6.968H47.126z M49.684,25.782   c6.468,0,12.063,2.583,13.459,5.92H36.225C37.621,28.365,43.213,25.782,49.684,25.782z M63.485,86.135H35.883V34.922h27.602V86.135   z"/>
	<path d="M38.313,40.209h22.76c0.89,0,1.609-0.72,1.609-1.609c0-0.889-0.719-1.609-1.609-1.609h-22.76   c-0.887,0-1.608,0.72-1.608,1.609C36.706,39.49,37.426,40.209,38.313,40.209z"/>
	<path d="M77.78,17.522c-0.297-0.298-0.715-0.471-1.141-0.471c-0.423,0-0.835,0.173-1.136,0.471c-0.302,0.3-0.472,0.715-0.472,1.14   c0,0.422,0.17,0.839,0.472,1.137c0.298,0.3,0.712,0.471,1.136,0.471c0.426,0,0.844-0.171,1.141-0.471   c0.298-0.298,0.47-0.715,0.47-1.137C78.25,18.237,78.078,17.822,77.78,17.522z"/>
	<path d="M71.263,17.051c-0.421,0-0.838,0.173-1.138,0.471c-0.299,0.3-0.47,0.715-0.47,1.14c0,0.422,0.171,0.836,0.47,1.137   c0.3,0.3,0.717,0.471,1.138,0.471c0.427,0,0.84-0.171,1.139-0.471c0.297-0.298,0.47-0.715,0.47-1.137c0-0.425-0.172-0.84-0.47-1.14   C72.104,17.224,71.69,17.051,71.263,17.051z"/>
	<path d="M75.763,14.98c0.424,0,0.839-0.171,1.139-0.471c0.3-0.301,0.472-0.716,0.472-1.139c0-0.424-0.172-0.839-0.472-1.139   c-0.3-0.298-0.715-0.471-1.139-0.471c-0.423,0-0.838,0.173-1.14,0.471c-0.298,0.3-0.47,0.715-0.47,1.139   c0,0.423,0.172,0.838,0.47,1.139C74.925,14.809,75.34,14.98,75.763,14.98z"/>
	<path d="M70.312,16.838c0.425,0,0.84-0.171,1.14-0.471c0.298-0.303,0.47-0.716,0.47-1.139c0-0.424-0.172-0.838-0.47-1.139   c-0.3-0.296-0.715-0.47-1.14-0.47c-0.422,0-0.838,0.173-1.137,0.47c-0.302,0.301-0.472,0.715-0.472,1.139   c0,0.423,0.17,0.836,0.472,1.139C69.474,16.667,69.89,16.838,70.312,16.838z"/>
	<path d="M75.763,22.514c-0.423,0-0.838,0.171-1.14,0.473c-0.298,0.3-0.47,0.715-0.47,1.137c0,0.425,0.172,0.838,0.47,1.14   c0.302,0.299,0.717,0.47,1.14,0.47c0.424,0,0.839-0.171,1.139-0.47c0.3-0.302,0.472-0.715,0.472-1.14   c0-0.422-0.172-0.836-0.472-1.137C76.602,22.685,76.188,22.514,75.763,22.514z"/>
	<path d="M70.312,20.654c-0.422,0-0.838,0.173-1.137,0.473c-0.302,0.3-0.472,0.715-0.472,1.138c0,0.424,0.17,0.838,0.472,1.139   c0.299,0.299,0.715,0.47,1.137,0.47c0.425,0,0.84-0.171,1.14-0.47c0.298-0.301,0.47-0.715,0.47-1.139   c0-0.423-0.172-0.838-0.47-1.138C71.152,20.828,70.737,20.654,70.312,20.654z"/>
	<path d="M66.721,19.34l-1.739-0.593l1.684-0.574c0.84-0.287,1.289-1.201,1.003-2.044c-0.286-0.84-1.201-1.289-2.043-1.003   l-5.898,2.011c-0.698,0.238-1.1,0.908-1.063,1.61c-0.038,0.701,0.364,1.371,1.063,1.609l5.956,2.032   c0.172,0.06,0.349,0.086,0.521,0.086c0.67,0,1.295-0.422,1.523-1.091C68.016,20.543,67.566,19.629,66.721,19.34z"/>
</g>
</svg>